<mxfile host="app.diagrams.net" agent="Mozilla/5.0 (Windows NT 10.0; Win64; x64) AppleWebKit/537.36 (KHTML, like Gecko) Chrome/133.0.0.0 Safari/537.36" version="26.0.11">
  <diagram name="PÃ¡gina-1" id="4VMxkRodRdtRvvktiW2m">
    <mxGraphModel dx="1434" dy="746" grid="1" gridSize="10" guides="1" tooltips="1" connect="1" arrows="1" fold="1" page="1" pageScale="1" pageWidth="1169" pageHeight="827" math="0" shadow="0">
      <root>
        <mxCell id="0" />
        <mxCell id="1" parent="0" />
        <mxCell id="8vsVwCwNeEGrZoSonebL-1" style="edgeStyle=orthogonalEdgeStyle;rounded=0;orthogonalLoop=1;jettySize=auto;html=1;entryX=0.5;entryY=0;entryDx=0;entryDy=0;" edge="1" parent="1" source="8vsVwCwNeEGrZoSonebL-2" target="8vsVwCwNeEGrZoSonebL-5">
          <mxGeometry relative="1" as="geometry" />
        </mxCell>
        <mxCell id="8vsVwCwNeEGrZoSonebL-2" value="INICIO" style="strokeWidth=2;html=1;shape=mxgraph.flowchart.start_1;whiteSpace=wrap;" vertex="1" parent="1">
          <mxGeometry x="566" y="110" width="100" height="60" as="geometry" />
        </mxCell>
        <mxCell id="8vsVwCwNeEGrZoSonebL-3" value="FIM" style="strokeWidth=2;html=1;shape=mxgraph.flowchart.start_1;whiteSpace=wrap;" vertex="1" parent="1">
          <mxGeometry x="575" y="560" width="100" height="60" as="geometry" />
        </mxCell>
        <mxCell id="8vsVwCwNeEGrZoSonebL-4" style="edgeStyle=orthogonalEdgeStyle;rounded=0;orthogonalLoop=1;jettySize=auto;html=1;entryX=0.5;entryY=0;entryDx=0;entryDy=0;" edge="1" parent="1" source="8vsVwCwNeEGrZoSonebL-5" target="8vsVwCwNeEGrZoSonebL-6">
          <mxGeometry relative="1" as="geometry" />
        </mxCell>
        <mxCell id="8vsVwCwNeEGrZoSonebL-5" value="PESO" style="html=1;strokeWidth=2;shape=manualInput;whiteSpace=wrap;rounded=1;size=26;arcSize=11;" vertex="1" parent="1">
          <mxGeometry x="566" y="190" width="100" height="70" as="geometry" />
        </mxCell>
        <mxCell id="8vsVwCwNeEGrZoSonebL-6" value="ALTURA" style="html=1;strokeWidth=2;shape=manualInput;whiteSpace=wrap;rounded=1;size=26;arcSize=11;" vertex="1" parent="1">
          <mxGeometry x="566" y="287" width="100" height="70" as="geometry" />
        </mxCell>
        <mxCell id="8vsVwCwNeEGrZoSonebL-7" style="edgeStyle=orthogonalEdgeStyle;rounded=0;orthogonalLoop=1;jettySize=auto;html=1;" edge="1" parent="1" source="8vsVwCwNeEGrZoSonebL-8" target="8vsVwCwNeEGrZoSonebL-10">
          <mxGeometry relative="1" as="geometry" />
        </mxCell>
        <mxCell id="8vsVwCwNeEGrZoSonebL-8" value="IMC = PESO / (ALTURA * ALTURA)" style="rounded=1;whiteSpace=wrap;html=1;absoluteArcSize=1;arcSize=14;strokeWidth=2;" vertex="1" parent="1">
          <mxGeometry x="490" y="390" width="270" height="50" as="geometry" />
        </mxCell>
        <mxCell id="8vsVwCwNeEGrZoSonebL-9" style="edgeStyle=orthogonalEdgeStyle;rounded=0;orthogonalLoop=1;jettySize=auto;html=1;" edge="1" parent="1" source="8vsVwCwNeEGrZoSonebL-10" target="8vsVwCwNeEGrZoSonebL-3">
          <mxGeometry relative="1" as="geometry" />
        </mxCell>
        <mxCell id="8vsVwCwNeEGrZoSonebL-10" value="IMC" style="strokeWidth=2;html=1;shape=mxgraph.flowchart.display;whiteSpace=wrap;" vertex="1" parent="1">
          <mxGeometry x="575" y="470" width="100" height="60" as="geometry" />
        </mxCell>
        <mxCell id="8vsVwCwNeEGrZoSonebL-11" style="edgeStyle=orthogonalEdgeStyle;rounded=0;orthogonalLoop=1;jettySize=auto;html=1;entryX=0.467;entryY=-0.06;entryDx=0;entryDy=0;entryPerimeter=0;" edge="1" parent="1" source="8vsVwCwNeEGrZoSonebL-6" target="8vsVwCwNeEGrZoSonebL-8">
          <mxGeometry relative="1" as="geometry" />
        </mxCell>
        <mxCell id="8vsVwCwNeEGrZoSonebL-12" value="IMC&lt;div&gt;28.57&lt;/div&gt;" style="strokeWidth=2;html=1;shape=mxgraph.flowchart.display;whiteSpace=wrap;" vertex="1" parent="1">
          <mxGeometry x="175" y="414" width="100" height="60" as="geometry" />
        </mxCell>
        <mxCell id="8vsVwCwNeEGrZoSonebL-13" value="PESO&lt;div&gt;87.5&lt;/div&gt;&lt;div&gt;ALTURA&lt;/div&gt;&lt;div&gt;1.75&lt;/div&gt;&lt;div&gt;IMC&lt;/div&gt;&lt;div&gt;87.5 / (1.75 * 1.75)&lt;/div&gt;" style="rounded=1;whiteSpace=wrap;html=1;absoluteArcSize=1;arcSize=14;strokeWidth=2;" vertex="1" parent="1">
          <mxGeometry x="140" y="240" width="170" height="100" as="geometry" />
        </mxCell>
      </root>
    </mxGraphModel>
  </diagram>
</mxfile>
